<svg width="490" height="477" viewBox="0 0 490 477" fill="none" xmlns="http://www.w3.org/2000/svg">
<path d="M241.9 0.0999554C285.3 -0.200045 328.1 10.6 366.1 31.6C404.2 52.6 434.1 81.1999 455.8 117.4C478.2 154.9 489.3 195.9 489.3 240.6C489.3 295.2 474 344 443.5 387C413 430 373 459.8 323.8 476.2C318.5 477.5 314.4 476.8 311.5 474.2C308.6 471.7 307 468.1 307.1 464.3V381.5C307.1 360.5 301.5 345.4 290.3 336.2C314.6 333.6 332.7 330.3 344.5 326.3C362.9 319.7 377.1 309.9 386.9 296.7C398.1 279.6 403.7 256.3 403.6 226.7C403.6 214.2 401.3 203.4 396.7 194.2C393.4 187.6 387.2 179.4 378 169.6C380.8 162 382.5 154 382.9 145.9C383.5 131.1 381.2 116.4 376 102.5C369.4 100.5 360.2 101.8 348.4 106.4C338.9 110.5 329.7 115.1 320.8 120.2L308 129.1C287.7 123.2 266.6 120.2 245.4 120.2C224.5 120.1 203.8 123.1 183.8 129.1L171 120.2C161.8 114.9 152.3 110.3 142.4 106.4C130.6 101.8 121.7 100.5 115.8 102.5C110 116.2 107.7 131.1 109 145.9C109 155.1 110.3 162.7 112.9 168.6C106 176.9 100.2 186 95.7 195.8C92.1 204 90.3 214.3 90.3 226.9C90.3 256.5 95.6 279.5 106.1 296C115.3 309.8 129.1 320 147.5 326.5C159.3 330.4 177.1 333.7 200.7 336.4C192.2 344.3 186.9 355.4 184.9 369.9C173.7 375.2 162.8 377.1 152.3 375.7C135.2 374.4 122.1 365.5 112.9 349.1C109.1 342 103.7 336 97.1 331.4C92.4 328.7 87.4 326.4 82.3 324.5L75.4 323.5C68.2 323.5 64.4 324.6 64.1 326.9C63.8 329.2 65.2 331.7 68.5 334.3L73.4 338.2C78.8 341.5 83.5 345.9 87.2 351C91.2 355.7 94.6 361.1 97.1 366.8L101 374.6C104.1 384.3 110.8 392.4 119.7 397.3C128.5 402.2 138.3 405.2 148.3 406.2C156.5 406.8 164.7 406.5 172.9 405.2L183.8 404.2L184.8 464.3C184.9 468.1 183.2 471.7 180.4 474.2C177.4 476.8 173.3 477.5 168.1 476.2C118.1 459.8 77.7 430 46.8 387C15.9 344 0.5 295.2 0.5 240.6C0.5 195.9 11 155.1 32 118.4C52.5 82.0999 82.5 52.1 118.7 31.7C155.4 10.6 196.5 0.0999554 241.9 0.0999554ZM85.1 332.3C86.4 331 88.5 330.8 90 331.8C92 332.8 92.6 334.1 92 335.7C91.4 337.3 89.9 337.5 87.6 336.2C85.3 334.9 84.5 333.6 85.1 332.3ZM96 340.2C97.3 338.9 99 339.2 100.9 341.2C102.9 343.2 103.2 344.8 101.9 346.1C100.6 347.4 98.9 347.1 97 345.1C95 343.1 94.7 341.5 96 340.2ZM105.8 353C107.6 351.8 110 352.2 111.2 354C111.4 354.3 111.6 354.6 111.7 355C113.7 357.6 113.7 359.6 111.7 360.9C111 361.6 110.2 361.6 109.2 360.9C108.1 360.2 106.9 359.5 105.7 358.9C104.5 355.6 104.5 353.6 105.8 353ZM117.7 366.8C118.5 366.1 119.7 365.9 120.7 366.3C123.3 367 125.4 369.1 126.1 371.7C126.5 372.7 126.3 373.8 125.6 374.7C123.6 376.7 121.3 376.3 118.7 373.7C117.5 372.7 116.8 371.3 116.7 369.8C116.6 368.7 117 367.6 117.7 366.8ZM133.5 379.6C134.1 377 136.1 376.1 139.4 377.1C142.7 378.1 144.2 379.4 143.8 381C143.6 382.5 142.7 383.8 141.3 384.5C140.1 385.2 138.6 385.2 137.4 384.5C136.1 383.9 135 383 134 382C133 381.1 132.8 380.2 133.5 379.6ZM164 383.5C164 382.8 163.5 382.2 162.5 381.5C161.1 380.7 159.6 380.4 158.1 380.5C154.8 380.5 153.2 381.8 153.2 384.4C153.2 387 155 388.2 158.6 387.9C162.1 387.7 164 386.2 164 383.5ZM176.9 377.7C180.2 377.7 182 378.7 182.3 380.6C182.6 382.5 181.1 384.2 177.9 385.5C176.7 385.5 175.6 385.4 174.5 385C173.5 384.7 172.9 383.5 172.5 381.6C172.1 379.7 173.5 378.3 176.9 377.7Z" fill="url(#paint0_linear_123_27)"/>
<defs>
<linearGradient id="paint0_linear_123_27" x1="70.0183" y1="68.4206" x2="418.62" y2="417.007" gradientUnits="userSpaceOnUse">
<stop stop-color="#3FE0C5"/>
<stop offset="0.5" stop-color="#E4A663"/>
<stop offset="0.56" stop-color="#E49D68"/>
<stop offset="0.67" stop-color="#E58577"/>
<stop offset="0.8" stop-color="#E65D8F"/>
<stop offset="0.95" stop-color="#E826B0"/>
<stop offset="1" stop-color="#E911BD"/>
</linearGradient>
</defs>
</svg>
