<svg xmlns="http://www.w3.org/2000/svg" fill="none" viewBox="0 0 24 24" id="Adobe-Photoshop--Streamline-Svg-Logos" height="24" width="24"><desc>Adobe Photoshop Streamline Icon: https://streamlinehq.com</desc><path fill="#001e36" d="M19.848625 0.5437h-15.69725C1.9967025 0.5437 0.25 2.2904025 0.25 4.445075v15.10975c0 2.154675 1.7467025 3.901375 3.901375 3.901375h15.69725C22.0033 23.4562 23.75 21.7095 23.75 19.554825v-15.10975c0 -2.1546725 -1.7467 -3.901375 -3.901375 -3.901375Z" stroke-width="0.25"></path><path fill="#31a8ff" d="M5.541625 16.61135V6.5378c0 -0.073425 0.03155 -0.110375 0.094625 -0.110375l0.09975 -0.0003 0.17055 -0.001875 0.237075 -0.00465 0.794075 -0.0168 0.8513 -0.015775c0.2995 -0.005175 0.596375 -0.0079 0.890675 -0.0079 0.798575 0 1.4712 0.09985 2.01785 0.299525 0.493125 0.1668 0.942825 0.441475 1.316375 0.804 0.316675 0.314225 0.561375 0.693425 0.717275 1.1114 0.147475 0.4068 0.2222 0.836375 0.220775 1.26905 0 0.84095 -0.194475 1.5346 -0.583325 2.080925 -0.380575 0.53335 -0.9112 0.940825 -1.523775 1.17095l-0.0527 0.019275c-0.64005 0.238825 -1.348925 0.3251 -2.126375 0.330575l-0.120775 0.00025 -0.17925 -0.00095 -0.0905 -0.001225 -0.1008 -0.0024 -0.060675 -0.002375 -0.036925 -0.0019 -0.0908 -0.00335 -0.110975 -0.002225 -0.1671 -0.001275c-0.012175 -0.000025 -0.024575 -0.000025 -0.0372 -0.00005v3.145275c0.005575 0.039075 -0.007575 0.0785 -0.035475 0.1064 -0.027925 0.027925 -0.06735 0.04105 -0.106425 0.035475h-1.8769c-0.073625 0 -0.11035 -0.041875 -0.11035 -0.126125Zm2.12915 -8.292175v3.2856c0.13645 0.010575 0.26255 0.015825 0.378325 0.01575h0.520225c0.35885 -0.0012 0.7155 -0.054625 1.058725 -0.1585l0.068475 -0.02145c0.3123 -0.092775 0.591375 -0.27335 0.803975 -0.520225 0.1976 -0.233 0.29995 -0.55405 0.307025 -0.963125l0.0004 -0.0458c0.008325 -0.30495 -0.071025 -0.605875 -0.228625 -0.867075 -0.165675 -0.252575 -0.4051 -0.447975 -0.68575 -0.559625 -0.36645 -0.14245 -0.75785 -0.209475 -1.1508 -0.19705l-0.19995 0.000575 -0.1261 0.00105 -0.1204 0.00155 -0.1698 0.003325 -0.123875 0.0035 -0.06445 0.002375 -0.086025 0.004 -0.073225 0.004525 -0.04175 0.0033 -0.036025 0.00355c-0.00555 0.0006 -0.01085 0.001225 -0.0159 0.00185l-0.014475 0.0019Zm11.37645 2.688175c-0.275125 -0.14135 -0.56685 -0.247475 -0.868275 -0.315925l-0.069725 -0.015125c-0.331775 -0.076125 -0.6704 -0.118025 -1.010575 -0.1251l-0.085075 -0.001025c-0.19945 -0.005425 -0.39865 0.0185 -0.591175 0.07095 -0.12255 0.027275 -0.23145 0.0971 -0.307425 0.19705 -0.051375 0.07995 -0.078725 0.172975 -0.0788 0.268 0.002875 0.0922 0.036125 0.180875 0.094575 0.252225 0.083725 0.097925 0.184325 0.1799 0.296925 0.242075l0.034125 0.01805c0.224775 0.121025 0.456375 0.22895 0.69365 0.323175 0.529075 0.1771 1.03465 0.417975 1.5055 0.717275 0.320775 0.20245 0.586225 0.48145 0.772475 0.811875 0.156625 0.3129 0.235075 0.6591 0.2286 1.00895 0.009425 0.46195 -0.122575 0.915775 -0.378325 1.300575 -0.273825 0.390625 -0.65415 0.694325 -1.095675 0.874925 -0.4624 0.203125 -1.03025 0.3081 -1.703475 0.31495l-0.070025 0.00035c-0.4174 0.004225 -0.83415 -0.032325 -1.244325 -0.10905l-0.087775 -0.017075c-0.34545 -0.063325 -0.6817 -0.169225 -1.001075 -0.315275 -0.065675 -0.033925 -0.107525 -0.1004 -0.11035 -0.17345l0 -1.7183c-0.003875 -0.033975 0.0113 -0.0673 0.03945 -0.086725 0.0277 -0.015675 0.06225 -0.012525 0.086675 0.0079 0.377175 0.2224 0.7867 0.3846 1.213875 0.4808 0.3765 0.094375 0.7627 0.14465 1.1508 0.149775 0.367775 0 0.6384 -0.0473 0.811875 -0.141875 0.16005 -0.073275 0.261975 -0.233875 0.26015 -0.409875 0 -0.136475 -0.078825 -0.267825 -0.236475 -0.394125 -0.0661 -0.052875 -0.16085 -0.1104 -0.284275 -0.172525l-0.058975 -0.029 -0.063075 -0.029675c-0.01085 -0.005 -0.02185 -0.010025 -0.03305 -0.015075l-0.069175 -0.030625c-0.01185 -0.005175 -0.0239 -0.01035 -0.0361 -0.015575l-0.075275 -0.031625c-0.012875 -0.005325 -0.025925 -0.010675 -0.03915 -0.016075l-0.081375 -0.0326c-0.0139 -0.0055 -0.027975 -0.011025 -0.0422 -0.01655l-0.087475 -0.0336 -0.09155 -0.03425c-0.495 -0.1723 -0.964325 -0.410925 -1.39515 -0.7094 -0.308175 -0.214325 -0.5619 -0.49775 -0.74095 -0.82765 -0.155025 -0.31065 -0.2334 -0.6539 -0.228575 -1.00105 -0.000875 -0.4171 0.1137 -0.826325 0.33105 -1.18235 0.247825 -0.392025 0.603675 -0.704075 1.024725 -0.898575 0.462325 -0.23105 1.040375 -0.34665 1.7341 -0.346825 0.406275 -0.00325 0.812175 0.025725 1.213875 0.086725 0.290875 0.036875 0.575275 0.1138 0.8451 0.228575 0.043375 0.01245 0.0784 0.04455 0.09455 0.0867 0.010675 0.0385 0.015975 0.0783 0.015775 0.11825v1.5922c0.002225 0.037725 -0.015775 0.07375 -0.047275 0.0946 -0.042725 0.02125 -0.09295 0.02125 -0.135675 0Z" stroke-width="0.25"></path></svg>